<svg width="900" height="230" viewBox="0 0 900 230" fill="none" xmlns="http://www.w3.org/2000/svg" role="img" aria-label="Mohammad Abu Mattar — AWS-Certified DevOps Engineer">
  <defs>
    <linearGradient id="surfaceL" x1="0" y1="0" x2="900" y2="230" gradientUnits="userSpaceOnUse">
      <stop offset="0" stop-color="#ffffff"/>
      <stop offset="1" stop-color="#f4f7f5"/>
    </linearGradient>
    <radialGradient id="glowL" cx="0.5" cy="0.5" r="0.5">
      <stop offset="0" stop-color="#15803D" stop-opacity="0.16"/>
      <stop offset="1" stop-color="#15803D" stop-opacity="0"/>
    </radialGradient>
  </defs>

  <rect width="900" height="230" rx="18" fill="url(#surfaceL)"/>
  <rect x="0.75" y="0.75" width="898.5" height="228.5" rx="17.25" fill="none" stroke="#15803D" stroke-opacity="0.22"/>

  <g stroke="#15803D" stroke-opacity="0.34" stroke-width="1.4">
    <line x1="648" y1="58" x2="742" y2="42"/>
    <line x1="648" y1="58" x2="612" y2="132"/>
    <line x1="742" y1="42" x2="820" y2="86"/>
    <line x1="742" y1="42" x2="742" y2="128"/>
    <line x1="612" y1="132" x2="742" y2="128"/>
    <line x1="742" y1="128" x2="820" y2="86"/>
    <line x1="742" y1="128" x2="700" y2="188"/>
    <line x1="820" y1="86" x2="838" y2="160"/>
    <line x1="700" y1="188" x2="838" y2="160"/>
  </g>
  <circle cx="742" cy="42" r="24" fill="url(#glowL)"/>
  <circle cx="742" cy="128" r="30" fill="url(#glowL)"/>
  <g fill="#ffffff" stroke="#15803D" stroke-width="1.6">
    <circle cx="648" cy="58" r="5.5"/>
    <circle cx="612" cy="132" r="5.5"/>
    <circle cx="820" cy="86" r="5.5"/>
    <circle cx="700" cy="188" r="5.5"/>
    <circle cx="838" cy="160" r="5.5"/>
  </g>
  <g fill="#15803D">
    <circle cx="742" cy="42" r="6.5"/>
    <circle cx="742" cy="128" r="6.5"/>
  </g>

  <text x="56" y="96" font-family="'IBM Plex Sans', 'Segoe UI', Helvetica, Arial, sans-serif" font-size="42" font-weight="700" fill="#121212" letter-spacing="-0.5">Mohammad Abu Mattar</text>
  <rect x="58" y="116" width="34" height="3" rx="1.5" fill="#15803D"/>
  <text x="102" y="128" font-family="'IBM Plex Sans', 'Segoe UI', Helvetica, Arial, sans-serif" font-size="19" font-weight="600" fill="#15803D">AWS-Certified DevOps Engineer</text>
  <text x="56" y="164" font-family="'IBM Plex Sans', 'Segoe UI', Helvetica, Arial, sans-serif" font-size="14" fill="#5b6470">Cloud &amp; Platform Engineering &#183; Infrastructure as Code &#183; Kubernetes &#183; Supply-Chain Security</text>
</svg>
