<svg width="900" height="120" viewBox="0 0 900 120" fill="none" xmlns="http://www.w3.org/2000/svg" role="img" aria-label="Let's build something that scales — mkabumattar.com">
  <defs>
    <linearGradient id="s" x1="0" y1="0" x2="900" y2="120" gradientUnits="userSpaceOnUse">
      <stop offset="0" stop-color="#0c0e12"/>
      <stop offset="1" stop-color="#12161d"/>
    </linearGradient>
    <radialGradient id="g" cx="0.5" cy="0.5" r="0.5">
      <stop offset="0" stop-color="#34d399" stop-opacity="0.22"/>
      <stop offset="1" stop-color="#34d399" stop-opacity="0"/>
    </radialGradient>
  </defs>
  <rect width="900" height="120" rx="16" fill="url(#s)"/>
  <rect x="0.75" y="0.75" width="898.5" height="118.5" rx="15.25" fill="none" stroke="#34d399" stroke-opacity="0.16"/>
  <rect x="40" y="40" width="6" height="40" rx="2" fill="#34d399"/>
  <text x="62" y="58" font-family="'IBM Plex Sans','Segoe UI',Helvetica,Arial,sans-serif" font-size="24" font-weight="700" fill="#ffffff" letter-spacing="-0.3">Let's build something that scales.</text>
  <text x="62" y="84" font-family="'IBM Plex Sans','Segoe UI',Helvetica,Arial,sans-serif" font-size="14" fill="#8b94a3">Open to DevOps &amp; platform engineering work &#183; mkabumattar.com</text>
  <g stroke="#34d399" stroke-opacity="0.38" stroke-width="1.3">
    <line x1="734" y1="40" x2="792" y2="30"/>
    <line x1="734" y1="40" x2="752" y2="86"/>
    <line x1="792" y1="30" x2="752" y2="86"/>
    <line x1="792" y1="30" x2="838" y2="62"/>
    <line x1="752" y1="86" x2="838" y2="62"/>
    <line x1="838" y1="62" x2="812" y2="98"/>
    <line x1="752" y1="86" x2="812" y2="98"/>
  </g>
  <circle cx="792" cy="30" r="20" fill="url(#g)"/>
  <g fill="#0c0e12" stroke="#34d399" stroke-width="1.4">
    <circle cx="734" cy="40" r="4.5"/>
    <circle cx="752" cy="86" r="4.5"/>
    <circle cx="838" cy="62" r="4.5"/>
    <circle cx="812" cy="98" r="4.5"/>
  </g>
  <circle cx="792" cy="30" r="5.5" fill="#34d399"/>
</svg>
